# xmcd CD database file
#
# Track frame offsets:
#	150
#	22927
#	40087
#	59977
#	83057
#	108667
#	136927
#	154432
#	172137
#	193397
#	210960
#
# Disc length: 3258 seconds
#
# Revision: 0
# Processed by: cddbd v1.5.2PL0 Copyright (c) Steve Scherf et al.
# Submitted via: cdripper 1,0,39,0213
#
DISCID=9e0cb80b
DTITLE=Elizabeth Lee - You got that Right
DYEAR=1900
DGENRE=Blues
TTITLE0=Somethin's gotta Give
TTITLE1=You slay Me
TTITLE2=Get Ready
TTITLE3=River's InVitation
TTITLE4=My, My, My
TTITLE5=Coffee Song
TTITLE6=Start it Up
TTITLE7=You got That Right
TTITLE8=MeThadOne Man
TTITLE9=Never meant To
TTITLE10=Shaky Ground - After Midnight
EXTD=
EXTT0=
EXTT1=
EXTT2=
EXTT3=
EXTT4=
EXTT5=
EXTT6=
EXTT7=
EXTT8=
EXTT9=
EXTT10=
PLAYORDER=
